<?xml version="1.0" encoding="utf-8" standalone="no"?>
<!DOCTYPE svg PUBLIC "-//W3C//DTD SVG 1.1//EN"
  "http://www.w3.org/Graphics/SVG/1.1/DTD/svg11.dtd">
<svg xmlns:xlink="http://www.w3.org/1999/xlink" width="432pt" height="360pt" viewBox="0 0 432 360" xmlns="http://www.w3.org/2000/svg" version="1.1">
 <metadata>
  <rdf:RDF xmlns:dc="http://purl.org/dc/elements/1.1/" xmlns:cc="http://creativecommons.org/ns#" xmlns:rdf="http://www.w3.org/1999/02/22-rdf-syntax-ns#">
   <cc:Work>
    <dc:type rdf:resource="http://purl.org/dc/dcmitype/StillImage"/>
    <dc:date>2025-10-02T10:53:30.949951</dc:date>
    <dc:format>image/svg+xml</dc:format>
    <dc:creator>
     <cc:Agent>
      <dc:title>Matplotlib v3.10.3, https://matplotlib.org/</dc:title>
     </cc:Agent>
    </dc:creator>
   </cc:Work>
  </rdf:RDF>
 </metadata>
 <defs>
  <style type="text/css">*{stroke-linejoin: round; stroke-linecap: butt}</style>
 </defs>
 <g id="figure_1">
  <g id="patch_1">
   <path d="M 0 360 
L 432 360 
L 432 0 
L 0 0 
z
" style="fill: #ffffff"/>
  </g>
  <g id="axes_1">
   <g id="patch_2">
    <path d="M 54 320.4 
L 388.8 320.4 
L 388.8 43.2 
L 54 43.2 
z
" style="fill: #ffffff"/>
   </g>
   <g id="PathCollection_1">
    <defs>
     <path id="m447f943c70" d="M 0 3.535534 
C 0.937635 3.535534 1.836992 3.163008 2.5 2.5 
C 3.163008 1.836992 3.535534 0.937635 3.535534 0 
C 3.535534 -0.937635 3.163008 -1.836992 2.5 -2.5 
C 1.836992 -3.163008 0.937635 -3.535534 0 -3.535534 
C -0.937635 -3.535534 -1.836992 -3.163008 -2.5 -2.5 
C -3.163008 -1.836992 -3.535534 -0.937635 -3.535534 0 
C -3.535534 0.937635 -3.163008 1.836992 -2.5 2.5 
C -1.836992 3.163008 -0.937635 3.535534 0 3.535534 
z
" style="stroke: #1f77b4"/>
    </defs>
    <g clip-path="url(#pbe476ab9f4)">
     <use xlink:href="#m447f943c70" x="320.58548" y="252.935433" style="fill: #1f77b4; stroke: #1f77b4"/>
    </g>
   </g>
   <g id="PathCollection_2">
    <defs>
     <path id="m2884e89fa1" d="M 0 3.535534 
C 0.937635 3.535534 1.836992 3.163008 2.5 2.5 
C 3.163008 1.836992 3.535534 0.937635 3.535534 0 
C 3.535534 -0.937635 3.163008 -1.836992 2.5 -2.5 
C 1.836992 -3.163008 0.937635 -3.535534 0 -3.535534 
C -0.937635 -3.535534 -1.836992 -3.163008 -2.5 -2.5 
C -3.163008 -1.836992 -3.535534 -0.937635 -3.535534 0 
C -3.535534 0.937635 -3.163008 1.836992 -2.5 2.5 
C -1.836992 3.163008 -0.937635 3.535534 0 3.535534 
z
" style="stroke: #ff7f0e"/>
    </defs>
    <g clip-path="url(#pbe476ab9f4)">
     <use xlink:href="#m2884e89fa1" x="54" y="43.2" style="fill: #ff7f0e; stroke: #ff7f0e"/>
    </g>
   </g>
   <g id="matplotlib.axis_1">
    <g id="xtick_1">
     <g id="line2d_1">
      <path d="M 54 320.4 
L 54 43.2 
" clip-path="url(#pbe476ab9f4)" style="fill: none; stroke-dasharray: 0.8,1.32; stroke-dashoffset: 0; stroke: #b0b0b0; stroke-opacity: 0.6; stroke-width: 0.8"/>
     </g>
     <g id="line2d_2">
      <defs>
       <path id="m0646b9ea9f" d="M 0 0 
L 0 3.5 
" style="stroke: #000000; stroke-width: 0.8"/>
      </defs>
      <g>
       <use xlink:href="#m0646b9ea9f" x="54" y="320.4" style="stroke: #000000; stroke-width: 0.8"/>
      </g>
     </g>
     <g id="text_1">
      <!-- 0.0 -->
      <g transform="translate(46.048437 334.998438) scale(0.1 -0.1)">
       <defs>
        <path id="DejaVuSans-30" d="M 2034 4250 
Q 1547 4250 1301 3770 
Q 1056 3291 1056 2328 
Q 1056 1369 1301 889 
Q 1547 409 2034 409 
Q 2525 409 2770 889 
Q 3016 1369 3016 2328 
Q 3016 3291 2770 3770 
Q 2525 4250 2034 4250 
z
M 2034 4750 
Q 2819 4750 3233 4129 
Q 3647 3509 3647 2328 
Q 3647 1150 3233 529 
Q 2819 -91 2034 -91 
Q 1250 -91 836 529 
Q 422 1150 422 2328 
Q 422 3509 836 4129 
Q 1250 4750 2034 4750 
z
" transform="scale(0.015625)"/>
        <path id="DejaVuSans-2e" d="M 684 794 
L 1344 794 
L 1344 0 
L 684 0 
L 684 794 
z
" transform="scale(0.015625)"/>
       </defs>
       <use xlink:href="#DejaVuSans-30"/>
       <use xlink:href="#DejaVuSans-2e" transform="translate(63.623047 0)"/>
       <use xlink:href="#DejaVuSans-30" transform="translate(95.410156 0)"/>
      </g>
     </g>
    </g>
    <g id="xtick_2">
     <g id="line2d_3">
      <path d="M 120.96 320.4 
L 120.96 43.2 
" clip-path="url(#pbe476ab9f4)" style="fill: none; stroke-dasharray: 0.8,1.32; stroke-dashoffset: 0; stroke: #b0b0b0; stroke-opacity: 0.6; stroke-width: 0.8"/>
     </g>
     <g id="line2d_4">
      <g>
       <use xlink:href="#m0646b9ea9f" x="120.96" y="320.4" style="stroke: #000000; stroke-width: 0.8"/>
      </g>
     </g>
     <g id="text_2">
      <!-- 0.2 -->
      <g transform="translate(113.008438 334.998438) scale(0.1 -0.1)">
       <defs>
        <path id="DejaVuSans-32" d="M 1228 531 
L 3431 531 
L 3431 0 
L 469 0 
L 469 531 
Q 828 903 1448 1529 
Q 2069 2156 2228 2338 
Q 2531 2678 2651 2914 
Q 2772 3150 2772 3378 
Q 2772 3750 2511 3984 
Q 2250 4219 1831 4219 
Q 1534 4219 1204 4116 
Q 875 4013 500 3803 
L 500 4441 
Q 881 4594 1212 4672 
Q 1544 4750 1819 4750 
Q 2544 4750 2975 4387 
Q 3406 4025 3406 3419 
Q 3406 3131 3298 2873 
Q 3191 2616 2906 2266 
Q 2828 2175 2409 1742 
Q 1991 1309 1228 531 
z
" transform="scale(0.015625)"/>
       </defs>
       <use xlink:href="#DejaVuSans-30"/>
       <use xlink:href="#DejaVuSans-2e" transform="translate(63.623047 0)"/>
       <use xlink:href="#DejaVuSans-32" transform="translate(95.410156 0)"/>
      </g>
     </g>
    </g>
    <g id="xtick_3">
     <g id="line2d_5">
      <path d="M 187.92 320.4 
L 187.92 43.2 
" clip-path="url(#pbe476ab9f4)" style="fill: none; stroke-dasharray: 0.8,1.32; stroke-dashoffset: 0; stroke: #b0b0b0; stroke-opacity: 0.6; stroke-width: 0.8"/>
     </g>
     <g id="line2d_6">
      <g>
       <use xlink:href="#m0646b9ea9f" x="187.92" y="320.4" style="stroke: #000000; stroke-width: 0.8"/>
      </g>
     </g>
     <g id="text_3">
      <!-- 0.4 -->
      <g transform="translate(179.968438 334.998438) scale(0.1 -0.1)">
       <defs>
        <path id="DejaVuSans-34" d="M 2419 4116 
L 825 1625 
L 2419 1625 
L 2419 4116 
z
M 2253 4666 
L 3047 4666 
L 3047 1625 
L 3713 1625 
L 3713 1100 
L 3047 1100 
L 3047 0 
L 2419 0 
L 2419 1100 
L 313 1100 
L 313 1709 
L 2253 4666 
z
" transform="scale(0.015625)"/>
       </defs>
       <use xlink:href="#DejaVuSans-30"/>
       <use xlink:href="#DejaVuSans-2e" transform="translate(63.623047 0)"/>
       <use xlink:href="#DejaVuSans-34" transform="translate(95.410156 0)"/>
      </g>
     </g>
    </g>
    <g id="xtick_4">
     <g id="line2d_7">
      <path d="M 254.88 320.4 
L 254.88 43.2 
" clip-path="url(#pbe476ab9f4)" style="fill: none; stroke-dasharray: 0.8,1.32; stroke-dashoffset: 0; stroke: #b0b0b0; stroke-opacity: 0.6; stroke-width: 0.8"/>
     </g>
     <g id="line2d_8">
      <g>
       <use xlink:href="#m0646b9ea9f" x="254.88" y="320.4" style="stroke: #000000; stroke-width: 0.8"/>
      </g>
     </g>
     <g id="text_4">
      <!-- 0.6 -->
      <g transform="translate(246.928438 334.998438) scale(0.1 -0.1)">
       <defs>
        <path id="DejaVuSans-36" d="M 2113 2584 
Q 1688 2584 1439 2293 
Q 1191 2003 1191 1497 
Q 1191 994 1439 701 
Q 1688 409 2113 409 
Q 2538 409 2786 701 
Q 3034 994 3034 1497 
Q 3034 2003 2786 2293 
Q 2538 2584 2113 2584 
z
M 3366 4563 
L 3366 3988 
Q 3128 4100 2886 4159 
Q 2644 4219 2406 4219 
Q 1781 4219 1451 3797 
Q 1122 3375 1075 2522 
Q 1259 2794 1537 2939 
Q 1816 3084 2150 3084 
Q 2853 3084 3261 2657 
Q 3669 2231 3669 1497 
Q 3669 778 3244 343 
Q 2819 -91 2113 -91 
Q 1303 -91 875 529 
Q 447 1150 447 2328 
Q 447 3434 972 4092 
Q 1497 4750 2381 4750 
Q 2619 4750 2861 4703 
Q 3103 4656 3366 4563 
z
" transform="scale(0.015625)"/>
       </defs>
       <use xlink:href="#DejaVuSans-30"/>
       <use xlink:href="#DejaVuSans-2e" transform="translate(63.623047 0)"/>
       <use xlink:href="#DejaVuSans-36" transform="translate(95.410156 0)"/>
      </g>
     </g>
    </g>
    <g id="xtick_5">
     <g id="line2d_9">
      <path d="M 321.84 320.4 
L 321.84 43.2 
" clip-path="url(#pbe476ab9f4)" style="fill: none; stroke-dasharray: 0.8,1.32; stroke-dashoffset: 0; stroke: #b0b0b0; stroke-opacity: 0.6; stroke-width: 0.8"/>
     </g>
     <g id="line2d_10">
      <g>
       <use xlink:href="#m0646b9ea9f" x="321.84" y="320.4" style="stroke: #000000; stroke-width: 0.8"/>
      </g>
     </g>
     <g id="text_5">
      <!-- 0.8 -->
      <g transform="translate(313.888438 334.998438) scale(0.1 -0.1)">
       <defs>
        <path id="DejaVuSans-38" d="M 2034 2216 
Q 1584 2216 1326 1975 
Q 1069 1734 1069 1313 
Q 1069 891 1326 650 
Q 1584 409 2034 409 
Q 2484 409 2743 651 
Q 3003 894 3003 1313 
Q 3003 1734 2745 1975 
Q 2488 2216 2034 2216 
z
M 1403 2484 
Q 997 2584 770 2862 
Q 544 3141 544 3541 
Q 544 4100 942 4425 
Q 1341 4750 2034 4750 
Q 2731 4750 3128 4425 
Q 3525 4100 3525 3541 
Q 3525 3141 3298 2862 
Q 3072 2584 2669 2484 
Q 3125 2378 3379 2068 
Q 3634 1759 3634 1313 
Q 3634 634 3220 271 
Q 2806 -91 2034 -91 
Q 1263 -91 848 271 
Q 434 634 434 1313 
Q 434 1759 690 2068 
Q 947 2378 1403 2484 
z
M 1172 3481 
Q 1172 3119 1398 2916 
Q 1625 2713 2034 2713 
Q 2441 2713 2670 2916 
Q 2900 3119 2900 3481 
Q 2900 3844 2670 4047 
Q 2441 4250 2034 4250 
Q 1625 4250 1398 4047 
Q 1172 3844 1172 3481 
z
" transform="scale(0.015625)"/>
       </defs>
       <use xlink:href="#DejaVuSans-30"/>
       <use xlink:href="#DejaVuSans-2e" transform="translate(63.623047 0)"/>
       <use xlink:href="#DejaVuSans-38" transform="translate(95.410156 0)"/>
      </g>
     </g>
    </g>
    <g id="xtick_6">
     <g id="line2d_11">
      <path d="M 388.8 320.4 
L 388.8 43.2 
" clip-path="url(#pbe476ab9f4)" style="fill: none; stroke-dasharray: 0.8,1.32; stroke-dashoffset: 0; stroke: #b0b0b0; stroke-opacity: 0.6; stroke-width: 0.8"/>
     </g>
     <g id="line2d_12">
      <g>
       <use xlink:href="#m0646b9ea9f" x="388.8" y="320.4" style="stroke: #000000; stroke-width: 0.8"/>
      </g>
     </g>
     <g id="text_6">
      <!-- 1.0 -->
      <g transform="translate(380.848437 334.998438) scale(0.1 -0.1)">
       <defs>
        <path id="DejaVuSans-31" d="M 794 531 
L 1825 531 
L 1825 4091 
L 703 3866 
L 703 4441 
L 1819 4666 
L 2450 4666 
L 2450 531 
L 3481 531 
L 3481 0 
L 794 0 
L 794 531 
z
" transform="scale(0.015625)"/>
       </defs>
       <use xlink:href="#DejaVuSans-31"/>
       <use xlink:href="#DejaVuSans-2e" transform="translate(63.623047 0)"/>
       <use xlink:href="#DejaVuSans-30" transform="translate(95.410156 0)"/>
      </g>
     </g>
    </g>
    <g id="text_7">
     <!-- Recall -->
     <g transform="translate(206.482812 348.676562) scale(0.1 -0.1)">
      <defs>
       <path id="DejaVuSans-52" d="M 2841 2188 
Q 3044 2119 3236 1894 
Q 3428 1669 3622 1275 
L 4263 0 
L 3584 0 
L 2988 1197 
Q 2756 1666 2539 1819 
Q 2322 1972 1947 1972 
L 1259 1972 
L 1259 0 
L 628 0 
L 628 4666 
L 2053 4666 
Q 2853 4666 3247 4331 
Q 3641 3997 3641 3322 
Q 3641 2881 3436 2590 
Q 3231 2300 2841 2188 
z
M 1259 4147 
L 1259 2491 
L 2053 2491 
Q 2509 2491 2742 2702 
Q 2975 2913 2975 3322 
Q 2975 3731 2742 3939 
Q 2509 4147 2053 4147 
L 1259 4147 
z
" transform="scale(0.015625)"/>
       <path id="DejaVuSans-65" d="M 3597 1894 
L 3597 1613 
L 953 1613 
Q 991 1019 1311 708 
Q 1631 397 2203 397 
Q 2534 397 2845 478 
Q 3156 559 3463 722 
L 3463 178 
Q 3153 47 2828 -22 
Q 2503 -91 2169 -91 
Q 1331 -91 842 396 
Q 353 884 353 1716 
Q 353 2575 817 3079 
Q 1281 3584 2069 3584 
Q 2775 3584 3186 3129 
Q 3597 2675 3597 1894 
z
M 3022 2063 
Q 3016 2534 2758 2815 
Q 2500 3097 2075 3097 
Q 1594 3097 1305 2825 
Q 1016 2553 972 2059 
L 3022 2063 
z
" transform="scale(0.015625)"/>
       <path id="DejaVuSans-63" d="M 3122 3366 
L 3122 2828 
Q 2878 2963 2633 3030 
Q 2388 3097 2138 3097 
Q 1578 3097 1268 2742 
Q 959 2388 959 1747 
Q 959 1106 1268 751 
Q 1578 397 2138 397 
Q 2388 397 2633 464 
Q 2878 531 3122 666 
L 3122 134 
Q 2881 22 2623 -34 
Q 2366 -91 2075 -91 
Q 1284 -91 818 406 
Q 353 903 353 1747 
Q 353 2603 823 3093 
Q 1294 3584 2113 3584 
Q 2378 3584 2631 3529 
Q 2884 3475 3122 3366 
z
" transform="scale(0.015625)"/>
       <path id="DejaVuSans-61" d="M 2194 1759 
Q 1497 1759 1228 1600 
Q 959 1441 959 1056 
Q 959 750 1161 570 
Q 1363 391 1709 391 
Q 2188 391 2477 730 
Q 2766 1069 2766 1631 
L 2766 1759 
L 2194 1759 
z
M 3341 1997 
L 3341 0 
L 2766 0 
L 2766 531 
Q 2569 213 2275 61 
Q 1981 -91 1556 -91 
Q 1019 -91 701 211 
Q 384 513 384 1019 
Q 384 1609 779 1909 
Q 1175 2209 1959 2209 
L 2766 2209 
L 2766 2266 
Q 2766 2663 2505 2880 
Q 2244 3097 1772 3097 
Q 1472 3097 1187 3025 
Q 903 2953 641 2809 
L 641 3341 
Q 956 3463 1253 3523 
Q 1550 3584 1831 3584 
Q 2591 3584 2966 3190 
Q 3341 2797 3341 1997 
z
" transform="scale(0.015625)"/>
       <path id="DejaVuSans-6c" d="M 603 4863 
L 1178 4863 
L 1178 0 
L 603 0 
L 603 4863 
z
" transform="scale(0.015625)"/>
      </defs>
      <use xlink:href="#DejaVuSans-52"/>
      <use xlink:href="#DejaVuSans-65" transform="translate(64.982422 0)"/>
      <use xlink:href="#DejaVuSans-63" transform="translate(126.505859 0)"/>
      <use xlink:href="#DejaVuSans-61" transform="translate(181.486328 0)"/>
      <use xlink:href="#DejaVuSans-6c" transform="translate(242.765625 0)"/>
      <use xlink:href="#DejaVuSans-6c" transform="translate(270.548828 0)"/>
     </g>
    </g>
   </g>
   <g id="matplotlib.axis_2">
    <g id="ytick_1">
     <g id="line2d_13">
      <path d="M 54 320.4 
L 388.8 320.4 
" clip-path="url(#pbe476ab9f4)" style="fill: none; stroke-dasharray: 0.8,1.32; stroke-dashoffset: 0; stroke: #b0b0b0; stroke-opacity: 0.6; stroke-width: 0.8"/>
     </g>
     <g id="line2d_14">
      <defs>
       <path id="m68458e7cef" d="M 0 0 
L -3.5 0 
" style="stroke: #000000; stroke-width: 0.8"/>
      </defs>
      <g>
       <use xlink:href="#m68458e7cef" x="54" y="320.4" style="stroke: #000000; stroke-width: 0.8"/>
      </g>
     </g>
     <g id="text_8">
      <!-- 0.0 -->
      <g transform="translate(31.096875 324.199219) scale(0.1 -0.1)">
       <use xlink:href="#DejaVuSans-30"/>
       <use xlink:href="#DejaVuSans-2e" transform="translate(63.623047 0)"/>
       <use xlink:href="#DejaVuSans-30" transform="translate(95.410156 0)"/>
      </g>
     </g>
    </g>
    <g id="ytick_2">
     <g id="line2d_15">
      <path d="M 54 264.96 
L 388.8 264.96 
" clip-path="url(#pbe476ab9f4)" style="fill: none; stroke-dasharray: 0.8,1.32; stroke-dashoffset: 0; stroke: #b0b0b0; stroke-opacity: 0.6; stroke-width: 0.8"/>
     </g>
     <g id="line2d_16">
      <g>
       <use xlink:href="#m68458e7cef" x="54" y="264.96" style="stroke: #000000; stroke-width: 0.8"/>
      </g>
     </g>
     <g id="text_9">
      <!-- 0.2 -->
      <g transform="translate(31.096875 268.759219) scale(0.1 -0.1)">
       <use xlink:href="#DejaVuSans-30"/>
       <use xlink:href="#DejaVuSans-2e" transform="translate(63.623047 0)"/>
       <use xlink:href="#DejaVuSans-32" transform="translate(95.410156 0)"/>
      </g>
     </g>
    </g>
    <g id="ytick_3">
     <g id="line2d_17">
      <path d="M 54 209.52 
L 388.8 209.52 
" clip-path="url(#pbe476ab9f4)" style="fill: none; stroke-dasharray: 0.8,1.32; stroke-dashoffset: 0; stroke: #b0b0b0; stroke-opacity: 0.6; stroke-width: 0.8"/>
     </g>
     <g id="line2d_18">
      <g>
       <use xlink:href="#m68458e7cef" x="54" y="209.52" style="stroke: #000000; stroke-width: 0.8"/>
      </g>
     </g>
     <g id="text_10">
      <!-- 0.4 -->
      <g transform="translate(31.096875 213.319219) scale(0.1 -0.1)">
       <use xlink:href="#DejaVuSans-30"/>
       <use xlink:href="#DejaVuSans-2e" transform="translate(63.623047 0)"/>
       <use xlink:href="#DejaVuSans-34" transform="translate(95.410156 0)"/>
      </g>
     </g>
    </g>
    <g id="ytick_4">
     <g id="line2d_19">
      <path d="M 54 154.08 
L 388.8 154.08 
" clip-path="url(#pbe476ab9f4)" style="fill: none; stroke-dasharray: 0.8,1.32; stroke-dashoffset: 0; stroke: #b0b0b0; stroke-opacity: 0.6; stroke-width: 0.8"/>
     </g>
     <g id="line2d_20">
      <g>
       <use xlink:href="#m68458e7cef" x="54" y="154.08" style="stroke: #000000; stroke-width: 0.8"/>
      </g>
     </g>
     <g id="text_11">
      <!-- 0.6 -->
      <g transform="translate(31.096875 157.879219) scale(0.1 -0.1)">
       <use xlink:href="#DejaVuSans-30"/>
       <use xlink:href="#DejaVuSans-2e" transform="translate(63.623047 0)"/>
       <use xlink:href="#DejaVuSans-36" transform="translate(95.410156 0)"/>
      </g>
     </g>
    </g>
    <g id="ytick_5">
     <g id="line2d_21">
      <path d="M 54 98.64 
L 388.8 98.64 
" clip-path="url(#pbe476ab9f4)" style="fill: none; stroke-dasharray: 0.8,1.32; stroke-dashoffset: 0; stroke: #b0b0b0; stroke-opacity: 0.6; stroke-width: 0.8"/>
     </g>
     <g id="line2d_22">
      <g>
       <use xlink:href="#m68458e7cef" x="54" y="98.64" style="stroke: #000000; stroke-width: 0.8"/>
      </g>
     </g>
     <g id="text_12">
      <!-- 0.8 -->
      <g transform="translate(31.096875 102.439219) scale(0.1 -0.1)">
       <use xlink:href="#DejaVuSans-30"/>
       <use xlink:href="#DejaVuSans-2e" transform="translate(63.623047 0)"/>
       <use xlink:href="#DejaVuSans-38" transform="translate(95.410156 0)"/>
      </g>
     </g>
    </g>
    <g id="ytick_6">
     <g id="line2d_23">
      <path d="M 54 43.2 
L 388.8 43.2 
" clip-path="url(#pbe476ab9f4)" style="fill: none; stroke-dasharray: 0.8,1.32; stroke-dashoffset: 0; stroke: #b0b0b0; stroke-opacity: 0.6; stroke-width: 0.8"/>
     </g>
     <g id="line2d_24">
      <g>
       <use xlink:href="#m68458e7cef" x="54" y="43.2" style="stroke: #000000; stroke-width: 0.8"/>
      </g>
     </g>
     <g id="text_13">
      <!-- 1.0 -->
      <g transform="translate(31.096875 46.999219) scale(0.1 -0.1)">
       <use xlink:href="#DejaVuSans-31"/>
       <use xlink:href="#DejaVuSans-2e" transform="translate(63.623047 0)"/>
       <use xlink:href="#DejaVuSans-30" transform="translate(95.410156 0)"/>
      </g>
     </g>
    </g>
    <g id="text_14">
     <!-- Precision -->
     <g transform="translate(25.017187 204.107031) rotate(-90) scale(0.1 -0.1)">
      <defs>
       <path id="DejaVuSans-50" d="M 1259 4147 
L 1259 2394 
L 2053 2394 
Q 2494 2394 2734 2622 
Q 2975 2850 2975 3272 
Q 2975 3691 2734 3919 
Q 2494 4147 2053 4147 
L 1259 4147 
z
M 628 4666 
L 2053 4666 
Q 2838 4666 3239 4311 
Q 3641 3956 3641 3272 
Q 3641 2581 3239 2228 
Q 2838 1875 2053 1875 
L 1259 1875 
L 1259 0 
L 628 0 
L 628 4666 
z
" transform="scale(0.015625)"/>
       <path id="DejaVuSans-72" d="M 2631 2963 
Q 2534 3019 2420 3045 
Q 2306 3072 2169 3072 
Q 1681 3072 1420 2755 
Q 1159 2438 1159 1844 
L 1159 0 
L 581 0 
L 581 3500 
L 1159 3500 
L 1159 2956 
Q 1341 3275 1631 3429 
Q 1922 3584 2338 3584 
Q 2397 3584 2469 3576 
Q 2541 3569 2628 3553 
L 2631 2963 
z
" transform="scale(0.015625)"/>
       <path id="DejaVuSans-69" d="M 603 3500 
L 1178 3500 
L 1178 0 
L 603 0 
L 603 3500 
z
M 603 4863 
L 1178 4863 
L 1178 4134 
L 603 4134 
L 603 4863 
z
" transform="scale(0.015625)"/>
       <path id="DejaVuSans-73" d="M 2834 3397 
L 2834 2853 
Q 2591 2978 2328 3040 
Q 2066 3103 1784 3103 
Q 1356 3103 1142 2972 
Q 928 2841 928 2578 
Q 928 2378 1081 2264 
Q 1234 2150 1697 2047 
L 1894 2003 
Q 2506 1872 2764 1633 
Q 3022 1394 3022 966 
Q 3022 478 2636 193 
Q 2250 -91 1575 -91 
Q 1294 -91 989 -36 
Q 684 19 347 128 
L 347 722 
Q 666 556 975 473 
Q 1284 391 1588 391 
Q 1994 391 2212 530 
Q 2431 669 2431 922 
Q 2431 1156 2273 1281 
Q 2116 1406 1581 1522 
L 1381 1569 
Q 847 1681 609 1914 
Q 372 2147 372 2553 
Q 372 3047 722 3315 
Q 1072 3584 1716 3584 
Q 2034 3584 2315 3537 
Q 2597 3491 2834 3397 
z
" transform="scale(0.015625)"/>
       <path id="DejaVuSans-6f" d="M 1959 3097 
Q 1497 3097 1228 2736 
Q 959 2375 959 1747 
Q 959 1119 1226 758 
Q 1494 397 1959 397 
Q 2419 397 2687 759 
Q 2956 1122 2956 1747 
Q 2956 2369 2687 2733 
Q 2419 3097 1959 3097 
z
M 1959 3584 
Q 2709 3584 3137 3096 
Q 3566 2609 3566 1747 
Q 3566 888 3137 398 
Q 2709 -91 1959 -91 
Q 1206 -91 779 398 
Q 353 888 353 1747 
Q 353 2609 779 3096 
Q 1206 3584 1959 3584 
z
" transform="scale(0.015625)"/>
       <path id="DejaVuSans-6e" d="M 3513 2113 
L 3513 0 
L 2938 0 
L 2938 2094 
Q 2938 2591 2744 2837 
Q 2550 3084 2163 3084 
Q 1697 3084 1428 2787 
Q 1159 2491 1159 1978 
L 1159 0 
L 581 0 
L 581 3500 
L 1159 3500 
L 1159 2956 
Q 1366 3272 1645 3428 
Q 1925 3584 2291 3584 
Q 2894 3584 3203 3211 
Q 3513 2838 3513 2113 
z
" transform="scale(0.015625)"/>
      </defs>
      <use xlink:href="#DejaVuSans-50"/>
      <use xlink:href="#DejaVuSans-72" transform="translate(58.552734 0)"/>
      <use xlink:href="#DejaVuSans-65" transform="translate(97.416016 0)"/>
      <use xlink:href="#DejaVuSans-63" transform="translate(158.939453 0)"/>
      <use xlink:href="#DejaVuSans-69" transform="translate(213.919922 0)"/>
      <use xlink:href="#DejaVuSans-73" transform="translate(241.703125 0)"/>
      <use xlink:href="#DejaVuSans-69" transform="translate(293.802734 0)"/>
      <use xlink:href="#DejaVuSans-6f" transform="translate(321.585938 0)"/>
      <use xlink:href="#DejaVuSans-6e" transform="translate(382.767578 0)"/>
     </g>
    </g>
   </g>
   <g id="line2d_25">
    <path d="M 388.8 251.1 
L 388.015925 251.221793 
L 388.015925 251.140645 
L 388.015925 251.059307 
L 386.447775 251.303704 
L 386.447775 251.222366 
L 386.447775 251.181625 
L 385.6637 251.304184 
L 385.6637 251.222655 
L 385.6637 251.181818 
L 383.311475 251.469272 
L 383.311475 251.346619 
L 380.959251 251.676813 
L 380.959251 251.635931 
L 380.959251 251.389612 
L 379.391101 251.597368 
L 379.391101 251.556194 
L 379.391101 251.473697 
L 378.607026 251.598561 
L 378.607026 251.515966 
L 378.607026 251.308609 
L 377.822951 251.433976 
L 377.822951 251.350784 
L 377.822951 251.225619 
L 372.334426 252.026245 
L 372.334426 251.692308 
L 370.766276 251.863403 
L 370.766276 251.821433 
L 369.982201 251.949265 
L 369.982201 251.865276 
L 369.982201 251.569686 
L 369.198126 251.69815 
L 369.198126 251.613333 
L 369.198126 251.528307 
L 368.414052 251.657143 
L 368.414052 251.572012 
L 368.414052 251.401117 
L 365.277752 251.834019 
L 365.277752 251.791272 
L 363.709602 251.96625 
L 363.709602 251.880601 
L 361.357377 252.187571 
L 361.357377 252.101823 
L 359.789227 252.279017 
L 359.789227 252.19306 
L 356.652927 252.678987 
L 356.652927 252.636099 
L 356.652927 252.377622 
L 355.868852 252.510687 
L 355.868852 252.424204 
L 355.868852 252.3375 
L 355.084778 252.470964 
L 355.084778 252.384153 
L 355.084778 252.209865 
L 353.516628 252.390751 
L 353.516628 252.30328 
L 351.948478 252.572569 
L 351.948478 252.485106 
L 351.948478 252.397418 
L 350.380328 252.580194 
L 350.380328 252.448249 
L 349.596253 252.584036 
L 349.596253 252.495906 
L 349.596253 252.451756 
L 348.028103 252.724219 
L 348.028103 252.635984 
L 348.028103 252.54752 
L 347.244028 252.684259 
L 347.244028 252.595683 
L 347.244028 252.551309 
L 344.107728 253.012352 
L 344.107728 252.923684 
L 340.971429 253.432871 
L 340.971429 253.388639 
L 340.971429 253.3 
L 340.187354 253.439047 
L 340.187354 253.350298 
L 340.187354 253.216733 
L 338.619204 253.451497 
L 338.619204 253.406924 
L 338.619204 253.228037 
L 337.051054 253.508824 
L 337.051054 253.419277 
L 337.051054 253.329491 
L 336.266979 253.470423 
L 336.266979 253.380524 
L 336.266979 253.245222 
L 335.482904 253.386667 
L 335.482904 253.296291 
L 335.482904 253.251012 
L 333.914754 253.444384 
L 333.914754 253.308203 
L 332.346604 253.593483 
L 332.346604 253.502651 
L 332.346604 253.457143 
L 330.778454 253.69816 
L 330.778454 253.65266 
L 330.778454 253.332419 
L 329.994379 253.476543 
L 329.994379 253.384615 
L 329.994379 253.2 
L 329.210304 253.344728 
L 329.210304 253.252174 
L 329.210304 252.879389 
L 328.42623 253.025 
L 328.42623 252.931293 
L 328.42623 252.506368 
L 326.85808 252.704842 
L 326.85808 252.081586 
L 322.15363 252.924982 
L 322.15363 252.876923 
L 322.15363 252.684 
L 319.01733 253.187948 
L 319.01733 253.091379 
L 318.233255 253.242272 
L 318.233255 253.145572 
L 318.233255 252.4608 
L 317.44918 252.6131 
L 317.44918 252.514286 
L 317.44918 251.713274 
L 315.096956 252.074611 
L 315.096956 251.71875 
L 314.312881 251.874013 
L 314.312881 251.771812 
L 314.312881 251.617937 
L 311.960656 252.086292 
L 311.960656 251.983796 
L 311.960656 251.932432 
L 310.392506 252.195034 
L 310.392506 252.143675 
L 310.392506 251.781983 
L 307.256206 252.36383 
L 307.256206 252.312091 
L 307.256206 252.260274 
L 305.688056 252.527231 
L 305.688056 252.47542 
L 305.688056 252.058065 
L 304.119906 252.379385 
L 304.119906 252.274576 
L 304.119906 252.169444 
L 301.767681 252.601858 
L 301.767681 252.549342 
L 301.767681 252.444065 
L 298.631382 252.990491 
L 298.631382 252.62069 
L 297.063232 252.843396 
L 297.063232 252.790244 
L 295.495082 253.120567 
L 295.495082 253.014365 
L 295.495082 252.747385 
L 291.574707 253.474422 
L 291.574707 253.314058 
L 290.790632 253.482014 
L 290.790632 253.37486 
L 290.790632 253.159518 
L 289.222482 253.443478 
L 289.222482 253.389525 
L 289.222482 253.335484 
L 288.438407 253.505085 
L 288.438407 253.396928 
L 288.438407 253.070349 
L 283.733958 253.989861 
L 283.733958 253.552593 
L 282.949883 253.725865 
L 282.949883 253.615842 
L 282.949883 253.505455 
L 281.381733 253.743284 
L 281.381733 253.687967 
L 280.597658 253.862791 
L 280.597658 253.75208 
L 280.597658 253.249288 
L 278.245433 253.778824 
L 278.245433 253.666667 
L 278.245433 253.610447 
L 275.109133 254.209992 
L 275.109133 254.153898 
L 272.756909 254.579745 
L 272.756909 254.52368 
L 270.404684 255.009231 
L 270.404684 254.953293 
L 270.404684 254.728584 
L 269.620609 254.910309 
L 269.620609 254.79759 
L 269.620609 254.113043 
L 268.052459 254.423017 
L 268.052459 254.365445 
L 266.484309 254.734615 
L 266.484309 254.677165 
L 266.484309 254.446356 
L 264.132084 254.946608 
L 264.132084 254.773145 
L 259.427635 255.8432 
L 259.427635 255.785765 
L 259.427635 255.612846 
L 258.64356 255.8025 
L 258.64356 255.744772 
L 258.64356 255.33777 
L 257.07541 255.661677 
L 257.07541 255.603249 
L 252.37096 256.644 
L 252.37096 256.585987 
L 251.586885 256.780328 
L 251.586885 256.722334 
L 251.586885 256.489296 
L 250.80281 256.684615 
L 250.80281 256.626214 
L 250.80281 256.509091 
L 249.23466 256.901564 
L 249.23466 256.843094 
L 249.23466 256.667036 
L 246.882436 257.26 
L 246.882436 257.201483 
L 246.882436 257.142857 
L 246.098361 257.341504 
L 246.098361 257.2829 
L 246.098361 256.869598 
L 242.177986 257.873684 
L 242.177986 257.755932 
L 242.177986 257.519093 
L 241.393911 257.721854 
L 241.393911 257.6625 
L 241.393911 257.423954 
L 240.609836 257.627783 
L 240.609836 257.568 
L 240.609836 257.508103 
L 239.041686 257.857744 
L 239.041686 257.557349 
L 236.689461 258.116876 
L 236.689461 257.875702 
L 235.905386 258.083721 
L 235.905386 258.023278 
L 235.905386 257.902041 
L 234.337237 258.259649 
L 234.337237 258.138281 
L 233.553162 258.348387 
L 233.553162 258.287671 
L 233.553162 258.165882 
L 231.200937 258.73937 
L 231.200937 258.678621 
L 229.632787 259.104047 
L 229.632787 259.043478 
L 229.632787 258.92198 
L 228.064637 259.35 
L 228.064637 259.289374 
L 228.064637 259.045663 
L 227.280562 259.261078 
L 227.280562 259.2 
L 227.280562 258.706949 
L 224.928337 259.298281 
L 224.928337 259.174468 
L 222.576112 259.832927 
L 222.576112 259.771312 
L 222.576112 259.647706 
L 221.792037 259.868571 
L 221.792037 259.806742 
L 221.792037 259.620492 
L 221.007963 259.842462 
L 221.007963 259.780287 
L 221.007963 259.467492 
L 219.439813 259.852174 
L 219.439813 259.600416 
L 218.655738 259.825598 
L 218.655738 259.7625 
L 218.655738 259.572414 
L 217.871663 259.798745 
L 217.871663 259.735288 
L 217.871663 259.607975 
L 216.303513 259.999579 
L 216.303513 259.808237 
L 214.735363 260.202966 
L 214.735363 259.81791 
L 213.167213 260.216471 
L 213.167213 260.152034 
L 210.814988 260.851128 
L 210.814988 260.787097 
L 210.814988 260.722928 
L 209.246838 261.192233 
L 209.246838 261.128294 
L 209.246838 260.935645 
L 208.462763 261.1718 
L 208.462763 261.107492 
L 208.462763 260.390769 
L 206.894614 260.869163 
L 206.894614 260.803528 
L 206.894614 260.737748 
L 205.326464 261.219027 
L 205.326464 261.153488 
L 205.326464 261.087805 
L 203.758314 261.506563 
L 203.758314 261.44098 
L 202.190164 261.928125 
L 202.190164 261.862793 
L 202.190164 261.797315 
L 201.406089 262.042105 
L 201.406089 261.976682 
L 201.406089 261.911111 
L 200.622014 262.156854 
L 200.622014 262.091339 
L 200.622014 262.025676 
L 199.837939 262.272379 
L 199.837939 262.206772 
L 199.837939 262.141017 
L 199.053864 262.388688 
L 199.053864 262.32299 
L 199.053864 262.257143 
L 198.269789 262.505789 
L 198.269789 262.44 
L 198.269789 262.374061 
L 196.701639 262.808219 
L 196.701639 262.610309 
L 195.917564 262.861927 
L 195.917564 262.795867 
L 195.917564 262.729655 
L 195.133489 262.982278 
L 195.133489 262.916129 
L 195.133489 262.849827 
L 193.56534 263.291667 
L 193.56534 263.159165 
L 191.99719 263.604657 
L 191.99719 263.538462 
L 190.42904 263.987368 
L 190.42904 263.588693 
L 188.86089 264.109091 
L 188.86089 264.042553 
L 188.86089 263.909005 
L 186.508665 264.63 
L 186.508665 264.363158 
L 184.15644 265.093269 
L 184.15644 264.624 
L 183.372365 264.892718 
L 183.372365 264.825273 
L 183.372365 264.757664 
L 181.804215 265.298049 
L 181.804215 265.230769 
L 181.804215 265.095716 
L 181.020141 265.367647 
L 181.020141 265.300123 
L 181.020141 265.164576 
L 180.236066 265.437931 
L 180.236066 265.37016 
L 180.236066 265.302222 
L 177.883841 266.127881 
L 177.883841 266.060546 
L 177.883841 265.789526 
L 176.315691 266.278348 
L 176.315691 266.074372 
L 175.531616 266.354717 
L 175.531616 266.28665 
L 175.531616 266.081416 
L 172.395316 267.146565 
L 172.395316 267.078726 
L 170.827166 267.650575 
L 170.827166 267.58312 
L 170.827166 267.243243 
L 169.259016 267.753488 
L 169.259016 267.134118 
L 167.690867 267.721101 
L 167.690867 267.651969 
L 167.690867 267.582654 
L 166.906792 267.877895 
L 166.906792 267.808696 
L 166.906792 267.739314 
L 165.338642 268.264371 
L 165.338642 268.056383 
L 163.770492 268.586916 
L 163.770492 268.308725 
L 162.986417 268.61129 
L 162.986417 268.541588 
L 162.986417 268.471698 
L 161.418267 269.080541 
L 161.418267 269.011096 
L 161.418267 268.941463 
L 159.850117 269.485714 
L 159.850117 269.277049 
L 159.066042 269.58632 
L 159.066042 269.516712 
L 159.066042 269.446914 
L 156.713817 270.312828 
L 156.713817 270.174274 
L 152.009368 272.006145 
L 152.009368 271.938462 
L 149.657143 272.835443 
L 149.657143 272.566337 
L 148.873068 272.891218 
L 148.873068 272.82383 
L 148.873068 272.75625 
L 148.088993 273.082788 
L 148.088993 273.015385 
L 148.088993 272.812017 
L 146.520843 273.470875 
L 146.520843 273.403448 
L 146.520843 272.856977 
L 145.736768 273.191266 
L 145.736768 273.122449 
L 145.736768 273.053431 
L 142.600468 274.335882 
L 142.600468 274.268041 
L 141.816393 274.60885 
L 141.816393 274.541211 
L 141.816393 274.473373 
L 139.464169 275.4375 
L 139.464169 275.168263 
L 138.680094 275.516042 
L 138.680094 275.448649 
L 138.680094 275.177039 
L 137.896019 275.527988 
L 137.896019 275.46 
L 137.896019 275.323404 
L 136.327869 275.963359 
L 136.327869 275.895413 
L 135.543794 276.251761 
L 135.543794 276.184049 
L 135.543794 275.979661 
L 134.759719 276.338889 
L 134.759719 276.270788 
L 134.759719 275.43685 
L 132.407494 276.469731 
L 132.407494 276.4 
L 130.055269 277.447284 
L 130.055269 277.240449 
L 129.271194 277.61672 
L 129.271194 277.547826 
L 129.271194 277.339806 
L 126.91897 278.481951 
L 126.91897 278.413681 
L 126.91897 277.929489 
L 125.35082 278.636424 
L 125.35082 278.567164 
L 124.566745 278.95814 
L 124.566745 278.889185 
L 124.566745 278.750584 
L 123.78267 279.144482 
L 123.78267 279.075377 
L 123.78267 278.866667 
L 121.430445 279.994576 
L 121.430445 279.509434 
L 119.862295 280.253793 
L 119.862295 280.184456 
L 119.07822 280.594464 
L 119.07822 280.525477 
L 119.07822 280.317073 
L 115.157845 282.400703 
L 115.157845 282.266667 
L 115.157845 281.927402 
L 113.589696 282.712701 
L 113.589696 282.645161 
L 112.021546 283.506475 
L 112.021546 283.44 
L 112.021546 282.967883 
L 111.237471 283.406216 
L 111.237471 283.338462 
L 111.237471 283.202206 
L 110.453396 283.644199 
L 110.453396 283.576384 
L 110.453396 283.508318 
L 108.885246 284.4 
L 108.885246 284.333086 
L 108.885246 284.198507 
L 108.101171 284.648972 
L 108.101171 284.582022 
L 108.101171 284.243478 
L 107.317096 284.7 
L 107.317096 284.632258 
L 107.317096 284.564259 
L 106.533021 285.024 
L 106.533021 284.956489 
L 106.533021 284.752399 
L 103.396721 286.490097 
L 103.396721 286.424125 
L 102.612646 286.898246 
L 102.612646 286.832812 
L 102.612646 286.767123 
L 101.044496 287.724165 
L 101.044496 287.595266 
L 101.044496 287.465347 
L 100.260422 287.95 
L 100.260422 287.820717 
L 100.260422 287.559036 
L 99.476347 288.050704 
L 99.476347 287.92 
L 99.476347 287.721951 
L 95.555972 290.108041 
L 95.555972 289.919502 
L 93.987822 290.9475 
L 93.987822 290.824268 
L 93.987822 290.762264 
L 93.203747 291.282353 
L 93.203747 291.159494 
L 93.203747 290.657511 
L 89.283372 293.223529 
L 89.283372 293.164192 
L 88.499297 293.71116 
L 88.499297 293.593846 
L 88.499297 293.415929 
L 86.931148 294.4125 
L 86.931148 294.237303 
L 83.794848 296.405467 
L 83.794848 295.788785 
L 83.010773 296.380328 
L 83.010773 296.267294 
L 83.010773 296.210377 
L 82.226698 296.808511 
L 82.226698 296.696437 
L 82.226698 296.353735 
L 79.090398 298.764878 
L 79.090398 298.658824 
L 79.090398 298.443564 
L 77.522248 299.61 
L 77.522248 299.4 
L 76.738173 300.048608 
L 76.738173 299.945038 
L 76.738173 299.627907 
L 75.170023 300.909375 
L 75.170023 300.858486 
L 75.170023 300.755906 
L 72.817799 302.706383 
L 72.817799 302.6592 
L 72.817799 302.516129 
L 71.249649 303.828261 
L 71.249649 303.783106 
L 71.249649 303.737705 
L 70.465574 304.451507 
L 70.465574 304.319337 
L 70.465574 304.23 
L 69.681499 304.957103 
L 69.681499 304.826966 
L 69.681499 304.694618 
L 68.897424 305.4375 
L 68.897424 305.308883 
L 68.897424 305.178035 
L 68.113349 305.937391 
L 68.113349 305.810526 
L 68.113349 305.55 
L 65.761124 307.8 
L 65.761124 307.761702 
L 65.761124 307.486957 
L 64.192974 309.13875 
L 64.192974 308.996203 
L 64.192974 308.96 
L 63.408899 309.806369 
L 63.408899 309.669677 
L 63.408899 309.49377 
L 62.624824 310.369737 
L 62.624824 310.236 
L 62.624824 309.77561 
L 61.056674 311.49 
L 61.056674 310.95 
L 57.920375 314.921739 
L 57.920375 314.856 
L 57.920375 313.504478 
L 57.1363 314.856 
L 57.1363 314.654922 
L 57.1363 314.274033 
L 55.56815 317.157895 
L 55.56815 317.08024 
L 55.56815 316.977778 
L 54.784075 318.678261 
L 54.784075 318.42 
L 54.784075 317.353846 
L 54 320.4 
L 54 320.4 
L 54 43.2 
L 54 43.2 
" clip-path="url(#pbe476ab9f4)" style="fill: none; stroke: #1f77b4; stroke-width: 2; stroke-linecap: square"/>
   </g>
   <g id="patch_3">
    <path d="M 54 320.4 
L 54 43.2 
" style="fill: none; stroke: #000000; stroke-width: 0.8; stroke-linejoin: miter; stroke-linecap: square"/>
   </g>
   <g id="patch_4">
    <path d="M 388.8 320.4 
L 388.8 43.2 
" style="fill: none; stroke: #000000; stroke-width: 0.8; stroke-linejoin: miter; stroke-linecap: square"/>
   </g>
   <g id="patch_5">
    <path d="M 54 320.4 
L 388.8 320.4 
" style="fill: none; stroke: #000000; stroke-width: 0.8; stroke-linejoin: miter; stroke-linecap: square"/>
   </g>
   <g id="patch_6">
    <path d="M 54 43.2 
L 388.8 43.2 
" style="fill: none; stroke: #000000; stroke-width: 0.8; stroke-linejoin: miter; stroke-linecap: square"/>
   </g>
   <g id="text_15">
    <!-- t=0.01 -->
    <g transform="translate(326.58548 246.935433) scale(0.1 -0.1)">
     <defs>
      <path id="DejaVuSans-74" d="M 1172 4494 
L 1172 3500 
L 2356 3500 
L 2356 3053 
L 1172 3053 
L 1172 1153 
Q 1172 725 1289 603 
Q 1406 481 1766 481 
L 2356 481 
L 2356 0 
L 1766 0 
Q 1100 0 847 248 
Q 594 497 594 1153 
L 594 3053 
L 172 3053 
L 172 3500 
L 594 3500 
L 594 4494 
L 1172 4494 
z
" transform="scale(0.015625)"/>
      <path id="DejaVuSans-3d" d="M 678 2906 
L 4684 2906 
L 4684 2381 
L 678 2381 
L 678 2906 
z
M 678 1631 
L 4684 1631 
L 4684 1100 
L 678 1100 
L 678 1631 
z
" transform="scale(0.015625)"/>
     </defs>
     <use xlink:href="#DejaVuSans-74"/>
     <use xlink:href="#DejaVuSans-3d" transform="translate(39.208984 0)"/>
     <use xlink:href="#DejaVuSans-30" transform="translate(122.998047 0)"/>
     <use xlink:href="#DejaVuSans-2e" transform="translate(186.621094 0)"/>
     <use xlink:href="#DejaVuSans-30" transform="translate(218.408203 0)"/>
     <use xlink:href="#DejaVuSans-31" transform="translate(282.03125 0)"/>
    </g>
   </g>
   <g id="text_16">
    <!-- t=1.00 -->
    <g transform="translate(60 37.2) scale(0.1 -0.1)">
     <use xlink:href="#DejaVuSans-74"/>
     <use xlink:href="#DejaVuSans-3d" transform="translate(39.208984 0)"/>
     <use xlink:href="#DejaVuSans-31" transform="translate(122.998047 0)"/>
     <use xlink:href="#DejaVuSans-2e" transform="translate(186.621094 0)"/>
     <use xlink:href="#DejaVuSans-30" transform="translate(218.408203 0)"/>
     <use xlink:href="#DejaVuSans-30" transform="translate(282.03125 0)"/>
    </g>
   </g>
   <g id="text_17">
    <!-- Precision–Recall (AP=0.195) -->
    <g transform="translate(137.215313 37.2) scale(0.12 -0.12)">
     <defs>
      <path id="DejaVuSans-2013" d="M 313 1978 
L 2888 1978 
L 2888 1528 
L 313 1528 
L 313 1978 
z
" transform="scale(0.015625)"/>
      <path id="DejaVuSans-20" transform="scale(0.015625)"/>
      <path id="DejaVuSans-28" d="M 1984 4856 
Q 1566 4138 1362 3434 
Q 1159 2731 1159 2009 
Q 1159 1288 1364 580 
Q 1569 -128 1984 -844 
L 1484 -844 
Q 1016 -109 783 600 
Q 550 1309 550 2009 
Q 550 2706 781 3412 
Q 1013 4119 1484 4856 
L 1984 4856 
z
" transform="scale(0.015625)"/>
      <path id="DejaVuSans-41" d="M 2188 4044 
L 1331 1722 
L 3047 1722 
L 2188 4044 
z
M 1831 4666 
L 2547 4666 
L 4325 0 
L 3669 0 
L 3244 1197 
L 1141 1197 
L 716 0 
L 50 0 
L 1831 4666 
z
" transform="scale(0.015625)"/>
      <path id="DejaVuSans-39" d="M 703 97 
L 703 672 
Q 941 559 1184 500 
Q 1428 441 1663 441 
Q 2288 441 2617 861 
Q 2947 1281 2994 2138 
Q 2813 1869 2534 1725 
Q 2256 1581 1919 1581 
Q 1219 1581 811 2004 
Q 403 2428 403 3163 
Q 403 3881 828 4315 
Q 1253 4750 1959 4750 
Q 2769 4750 3195 4129 
Q 3622 3509 3622 2328 
Q 3622 1225 3098 567 
Q 2575 -91 1691 -91 
Q 1453 -91 1209 -44 
Q 966 3 703 97 
z
M 1959 2075 
Q 2384 2075 2632 2365 
Q 2881 2656 2881 3163 
Q 2881 3666 2632 3958 
Q 2384 4250 1959 4250 
Q 1534 4250 1286 3958 
Q 1038 3666 1038 3163 
Q 1038 2656 1286 2365 
Q 1534 2075 1959 2075 
z
" transform="scale(0.015625)"/>
      <path id="DejaVuSans-35" d="M 691 4666 
L 3169 4666 
L 3169 4134 
L 1269 4134 
L 1269 2991 
Q 1406 3038 1543 3061 
Q 1681 3084 1819 3084 
Q 2600 3084 3056 2656 
Q 3513 2228 3513 1497 
Q 3513 744 3044 326 
Q 2575 -91 1722 -91 
Q 1428 -91 1123 -41 
Q 819 9 494 109 
L 494 744 
Q 775 591 1075 516 
Q 1375 441 1709 441 
Q 2250 441 2565 725 
Q 2881 1009 2881 1497 
Q 2881 1984 2565 2268 
Q 2250 2553 1709 2553 
Q 1456 2553 1204 2497 
Q 953 2441 691 2322 
L 691 4666 
z
" transform="scale(0.015625)"/>
      <path id="DejaVuSans-29" d="M 513 4856 
L 1013 4856 
Q 1481 4119 1714 3412 
Q 1947 2706 1947 2009 
Q 1947 1309 1714 600 
Q 1481 -109 1013 -844 
L 513 -844 
Q 928 -128 1133 580 
Q 1338 1288 1338 2009 
Q 1338 2731 1133 3434 
Q 928 4138 513 4856 
z
" transform="scale(0.015625)"/>
     </defs>
     <use xlink:href="#DejaVuSans-50"/>
     <use xlink:href="#DejaVuSans-72" transform="translate(58.552734 0)"/>
     <use xlink:href="#DejaVuSans-65" transform="translate(97.416016 0)"/>
     <use xlink:href="#DejaVuSans-63" transform="translate(158.939453 0)"/>
     <use xlink:href="#DejaVuSans-69" transform="translate(213.919922 0)"/>
     <use xlink:href="#DejaVuSans-73" transform="translate(241.703125 0)"/>
     <use xlink:href="#DejaVuSans-69" transform="translate(293.802734 0)"/>
     <use xlink:href="#DejaVuSans-6f" transform="translate(321.585938 0)"/>
     <use xlink:href="#DejaVuSans-6e" transform="translate(382.767578 0)"/>
     <use xlink:href="#DejaVuSans-2013" transform="translate(446.146484 0)"/>
     <use xlink:href="#DejaVuSans-52" transform="translate(496.146484 0)"/>
     <use xlink:href="#DejaVuSans-65" transform="translate(561.128906 0)"/>
     <use xlink:href="#DejaVuSans-63" transform="translate(622.652344 0)"/>
     <use xlink:href="#DejaVuSans-61" transform="translate(677.632812 0)"/>
     <use xlink:href="#DejaVuSans-6c" transform="translate(738.912109 0)"/>
     <use xlink:href="#DejaVuSans-6c" transform="translate(766.695312 0)"/>
     <use xlink:href="#DejaVuSans-20" transform="translate(794.478516 0)"/>
     <use xlink:href="#DejaVuSans-28" transform="translate(826.265625 0)"/>
     <use xlink:href="#DejaVuSans-41" transform="translate(865.279297 0)"/>
     <use xlink:href="#DejaVuSans-50" transform="translate(933.6875 0)"/>
     <use xlink:href="#DejaVuSans-3d" transform="translate(993.990234 0)"/>
     <use xlink:href="#DejaVuSans-30" transform="translate(1077.779297 0)"/>
     <use xlink:href="#DejaVuSans-2e" transform="translate(1141.402344 0)"/>
     <use xlink:href="#DejaVuSans-31" transform="translate(1173.189453 0)"/>
     <use xlink:href="#DejaVuSans-39" transform="translate(1236.8125 0)"/>
     <use xlink:href="#DejaVuSans-35" transform="translate(1300.435547 0)"/>
     <use xlink:href="#DejaVuSans-29" transform="translate(1364.058594 0)"/>
    </g>
   </g>
  </g>
 </g>
 <defs>
  <clipPath id="pbe476ab9f4">
   <rect x="54" y="43.2" width="334.8" height="277.2"/>
  </clipPath>
 </defs>
</svg>
